<svg id="Layer_1" data-name="Layer 1" xmlns="http://www.w3.org/2000/svg" viewBox="0 0 336.04 251.4"><defs><style>.cls-1{fill:#febd4a;}.cls-2{fill:#fe5d5b;}.cls-3{fill:#a7a7a7;}.cls-4,.cls-5,.cls-7{fill:#fff;}.cls-5{font-size:72px;}.cls-5,.cls-7{font-family:AvenirLTStd-Black, Avenir LT Std;font-weight:800;}.cls-6{letter-spacing:-0.02em;}.cls-7{font-size:24px;}</style></defs><title>man</title><path class="cls-1" d="M292.64,340.72c9.53,0,16.36,6.71,16.27,15.9a16.43,16.43,0,0,1-16.45,16.19c-9.07,0-15.73-7-15.66-16.49S283.11,340.69,292.64,340.72Z" transform="translate(-172.21 -340.49)"/><path class="cls-2" d="M188.35,340.61c8.94-.88,16.37,7.1,16.42,16.21,0,8.57-7.78,16-16.5,16a16.29,16.29,0,0,1-16.05-16.25C172.1,347.73,180.53,339.4,188.35,340.61Z" transform="translate(-172.21 -340.49)"/><path class="cls-3" d="M240.7,340.7a15.89,15.89,0,0,1,16.15,15.56c.21,9.17-7.46,16.65-16.93,16.52-8.15-.12-15.89-8-15.68-16.37S231.59,339.77,240.7,340.7Z" transform="translate(-172.21 -340.49)"/><path class="cls-4" d="M184.19,398.84c3.66.43,8.58-1.08,8.65,4.39.08,5.87-5.08,4.39-8.59,4.53-5.58.21-6.84-1.47-5.51-7C179.6,397.13,182.66,399.92,184.19,398.84Z" transform="translate(-172.21 -340.49)"/><text class="cls-5" transform="translate(0 104.83)">B<tspan class="cls-6" x="46.66" y="0">AW</tspan><tspan x="168.41" y="0">A</tspan></text><text class="cls-7" transform="translate(6.04 148.54)">BE UNIQUE</text><text x="-172.21" y="-340.49"/></svg>